#!OML:ASF F:\VICON\USERDATA\INSTALL\rory3\rory3.ASF
:FULLY-SPECIFIED
:DEGREES
77
root 0.45241327337830345 17.66379052287247 27.744224077119085 -1.6572728723881234 -0.589902660524951 2.9332138135094143
lfemur 13.339424152848897 -2.107875115041877 -27.414179124026642
ltibia 9.314462123445967
lfoot -12.061095621754559 -0.6280579807197928
ltoes -15.037333908320612
rfemur -29.786807530546923 6.565961141028533 16.11435557695353
rtibia 19.6495453082553
rfoot -4.757041605868965 -10.889881331605324
rtoes 1.8111219526517148
lowerback 9.761993463624055 -0.6881657310868188 -4.397372650772989
upperback 0.5691056594401407 -1.4261059561443958 0.8309049667687649
thorax -4.8637068694499055 -0.6420172800291939 3.485776572643851
lowerneck -15.615159992225427 -2.6110029819022755 -2.965781006416417
upperneck 23.63691156917179 -2.9632549121642846 0.9066479905455643
head 10.340429642887774 -1.5330528400662815 0.27211308315969285
lclavicle -1.3873500491383084e-15 -1.844618691381497e-15
lhumerus -30.145335643822992 1.8006638303486124 80.44688191156585
lradius 34.638394627218645
lwrist 5.731549212971954
lhand -27.826263969768714 25.37698485982983
lfingers 7.125019999999999
lthumb -1.1242038245060118 55.536298654401186
rclavicle -1.3887576676379307e-15 -1.8449296416829845e-15
rhumerus -35.33474971139953 -27.25905247798208 -70.19577369457403
rradius 19.26876643900168
rwrist 10.998795436205306
rhand -18.079157732268964 22.561109875755903
rfingers 7.125019999999999
rthumb 8.33115402723928 -7.255973878354938
78
root 0.3644378635308074 17.605203522534136 28.59085336823773 -1.7578647190811194 -0.5590417050239934 1.9526810156681758
lfemur 14.182952958069789 -3.0535837060577857 -26.339078716473708
ltibia 12.173314157195797
lfoot -12.171631904695591 -0.7206949377450995
ltoes -14.746277923993052
rfemur -29.465358234707434 6.05572589561722 17.755995669534066
rtibia 20.592892204529615
rfoot -4.850085085175526 -9.028910365809427
rtoes 2.0899154998339498
lowerback 10.024657205074522 -0.6889263569252477 -3.77860533604197
upperback 0.5502816918800211 -1.3653225742789092 1.0867063465400701
thorax -4.905260923011019 -0.6206657736793884 3.5230472948763625
lowerneck -15.71855097110373 -2.5836217893659614 -3.0537383984664346
upperneck 23.82788655298246 -2.8942830004526385 0.9086048626616928
head 10.424481616626858 -1.5084457922206702 0.3186806661919859
lclavicle -1.3869189140098246e-15 -1.8443404080740764e-15
lhumerus -30.555330596245774 1.9580527686041735 80.46125785772502
lradius 34.234937749035055
lwrist 5.097831260713064
lhand -27.65821857162596 25.286820648235064
lfingers 7.125019999999999
lthumb -0.9177336122408757 55.50738110503547
rclavicle -1.3888090408972839e-15 -1.8449781334843665e-15
rhumerus -35.54206031046285 -27.974974275174308 -69.00591214138872
rradius 18.241626061998723
rwrist 12.945246876901253
rhand -18.15743917565917 22.524414810550727
rfingers 7.125019999999999
rthumb 8.317704630025851 -7.2583636363623745
79
root 0.2759726756622851 17.527667690228174 29.423926961169016 -1.9222629172432486 0.20844462806651376 2.2081996416261593
lfemur 15.183423138930932 -4.0476676020832 -26.390951832038677
ltibia 15.076807806217797
lfoot -11.364048881965017 -1.2975113936487077
ltoes -15.02628176320035
rfemur -30.338666676553366 3.7415628441103466 18.689050261419094
rtibia 26.318589760956733
rfoot -4.685436484261696 -7.837580936634252
rtoes 3.0563334100010273
lowerback 9.711862849419727 -0.9285744596096215 -4.0342433477620645
upperback 0.6765515798578191 -1.616357276761521 1.189043641702289
thorax -4.682040889768021 -0.7375381057230883 3.6083086978003847
lowerneck -15.7885000147438 -2.495917785549738 -3.06223275693353
upperneck 24.14491896365678 -2.716635196337804 0.6854292694899653
head 10.51705649449653 -1.4548984459784253 0.2997880676646832
lclavicle -1.3844244422970493e-15 -1.8426041527284723e-15
lhumerus -30.969524899373496 2.23161556405572 80.53893681319852
lradius 33.442341096336776
lwrist 4.613166611265314
lhand -27.54729970340253 25.132502691777855
lfingers 7.125019999999999
lthumb -0.7805119452008635 55.3791134647297
rclavicle -1.388815207175803e-15 -1.844984463067942e-15
rhumerus -35.49286766677525 -28.41971023057569 -67.74528823760265
rradius 17.32414220079872
rwrist 14.68539408522357
rhand -18.16260159962344 22.427022155223412
rfingers 7.125019999999999
rthumb 8.328702854559982 -7.3516160895609985
80
root 0.17755920532203023 17.626946017070853 30.4131656246375 -1.9047797444210222 1.2602082377528834 1.5549851782971609
lfemur 14.763172309642622 -4.920902681370126 -25.36306834442167
ltibia 20.04950846540007
lfoot -10.51731067463931 -2.678354857102678
ltoes -16.543689937075378
rfemur -30.21121924595443 4.861465947619356 18.854307294573537
rtibia 29.91079202609152
rfoot -3.9896898876149356 -6.822654330400323
rtoes 4.689542153355521
lowerback 9.04287588738049 -1.4025622263757438 -3.4755204888348024
upperback 0.5983563203805632 -2.0892732835557144 1.5509595919119035
thorax -4.548027754121328 -0.9678618745131182 3.7447905595919373
lowerneck -15.732686991033136 -2.408086093673363 -3.0553533159480653
upperneck 24.432789469911548 -2.535062980552123 0.3984953123186709
head 10.561160505754971 -1.4054315124377221 0.2592372017880856
lclavicle -1.3831161324223303e-15 -1.8414844537650577e-15
lhumerus -31.528867844625314 2.4130390081693083 80.56797338126601
lradius 32.60127075014313
lwrist 4.5225912118370335
lhand -27.461886074944292 25.01992049817015
lfingers 7.125019999999999
lthumb -0.6790740735668684 55.24553121297616
rclavicle -1.3889180645773205e-15 -1.8450802720088678e-15
rhumerus -35.52530209520069 -28.78064428239113 -67.33058331196226
rradius 17.12862028053452
rwrist 15.211022201699622
rhand -18.06080667931072 22.33517542896927
rfingers 7.125019999999999
rthumb 8.394193087479978 -7.5121898808697605
81
root 0.12394749038504799 17.649025024885937 31.15138976837207 -2.4520552915964555 0.9895844984358788 -0.24487286856457047
lfemur 11.91740813016945 -4.482957051461731 -22.828255477815972
ltibia 28.012828250174238
lfoot -8.18657706245242 -4.51780982664795
ltoes -17.543701955937795
rfemur -28.814005935295867 5.292143852768509 21.58935176088324
rtibia 31.40871425032391
rfoot -3.9608906029700535 -5.9157868764396975
rtoes 6.4927459176190006
lowerback 9.281235338733078 -1.4260550906861325 -1.752037161227923
upperback 0.3603314182618442 -1.9121810672250779 2.125275717070261
thorax -4.786692173017897 -0.9151111234257965 3.5778930248892173
lowerneck -15.539496067037735 -2.3632879421437107 -3.031242635710149
upperneck 24.589333203637157 -2.4299537553759674 0.16332582335479187
head 10.529873266713974 -1.3811466668678263 0.21876177642439865
lclavicle -1.3862168980701662e-15 -1.843601465476826e-15
lhumerus -31.96109401744583 2.5546221159087406 80.61014825509221
lradius 31.751742885090145
lwrist 4.822223842553329
lhand -27.336467075820487 24.998988180566307
lfingers 7.125019999999999
lthumb -0.5186107068449815 55.20127473903251
rclavicle -1.3881679396946982e-15 -1.8443831145965162e-15
rhumerus -35.15455573864269 -28.351308139980194 -67.7200127999633
rradius 17.311232079740748
rwrist 14.600214190766453
rhand -17.81861146128322 22.37695443723599
rfingers 7.125019999999999
rthumb 8.561657884544525 -7.60248694087187
